<svg width="318" height="69" viewBox="0 0 318 69" fill="none" xmlns="http://www.w3.org/2000/svg">
<path d="M270.488 31.779H278.779L283.908 51.9379H284.146L290.051 31.779H297.804L303.709 52.0572H304.007L309.196 31.779H317.188L309.017 60.7053H299.295L294.047 42.2759H293.808L288.321 60.7053H278.659L270.488 31.779Z" fill="#191A33"/>
<path d="M246.795 59.5721C244.41 58.26 242.561 56.4111 241.189 54.0254C239.817 51.6398 239.161 49.0752 239.161 46.2124C239.161 43.4092 239.817 40.8446 241.189 38.4589C242.561 36.1329 244.41 34.284 246.795 32.9122C249.181 31.5405 251.805 30.8248 254.668 30.8248C257.531 30.8248 260.095 31.5405 262.481 32.9122C264.807 34.284 266.656 36.1329 268.028 38.4589C269.4 40.8446 270.115 43.4092 270.115 46.2124C270.115 49.0752 269.4 51.6398 268.087 53.9658C266.716 56.3515 264.867 58.2004 262.481 59.5721C260.095 60.9439 257.531 61.5999 254.668 61.5999C251.805 61.5999 249.181 60.9439 246.795 59.5721ZM247.69 50.3873C248.406 51.6994 249.36 52.7133 250.553 53.429C251.746 54.1447 253.117 54.5026 254.668 54.5026C256.099 54.5026 257.471 54.1447 258.724 53.429C259.917 52.7133 260.871 51.6994 261.586 50.3873C262.302 49.1348 262.66 47.763 262.66 46.2124C262.66 44.7213 262.302 43.3495 261.586 42.0374C260.871 40.785 259.917 39.771 258.724 39.0553C257.531 38.3396 256.159 37.9221 254.668 37.9221C252.342 37.9221 250.433 38.7571 248.942 40.3675C247.392 41.9778 246.676 43.946 246.676 46.2124C246.676 47.763 246.974 49.1348 247.69 50.3873Z" fill="#191A33"/>
<path d="M207.244 31.779H211.121V30.7651C211.121 28.1409 211.658 25.8745 212.731 23.966C213.805 22.1171 215.296 20.6857 217.204 19.7314C219.113 18.7771 221.2 18.3 223.586 18.3C225.256 18.3 226.747 18.5386 228.178 18.956H235.514V60.7053H228V25.5166C226.986 24.8009 225.673 24.4431 224.123 24.4431C222.393 24.4431 221.021 24.9799 220.067 26.0534C219.113 27.127 218.636 28.7373 218.636 30.7651V31.779H224.6V38.4589H218.636V60.7053H211.121V38.4589H207.244V31.779Z" fill="#191A33"/>
<path d="M183.652 59.5722C181.326 58.2004 179.537 56.3515 178.225 53.9658C176.913 51.6398 176.316 49.0752 176.316 46.2124C176.316 43.4689 176.913 40.9043 178.225 38.5186C179.477 36.1926 181.207 34.3437 183.473 32.9719C185.74 31.6002 188.245 30.8845 191.048 30.8845C193.911 30.8845 196.475 31.5405 198.682 32.8526C200.889 34.1648 202.618 35.954 203.811 38.2204C205.004 40.4868 205.601 43.0514 205.601 45.8546C205.601 46.7492 205.541 47.6438 205.422 48.5384H183.533C183.891 50.6259 184.845 52.2362 186.336 53.4291C187.768 54.6219 189.557 55.1587 191.644 55.1587C193.434 55.1587 194.925 54.7412 196.237 53.7869C197.549 52.8923 198.444 51.6994 198.98 50.268H199.1C199.696 51.103 200.591 51.7591 201.843 52.3555C203.096 52.9519 204.229 53.2501 205.243 53.1905V53.3694C203.99 56.1129 202.141 58.2004 199.756 59.5722C197.31 60.9439 194.567 61.6 191.465 61.6C188.543 61.6 185.919 60.9439 183.652 59.5722ZM198.324 42.7532C197.847 41.0236 197.012 39.6518 195.76 38.6379C194.448 37.6836 192.897 37.1468 190.988 37.1468C189.199 37.1468 187.648 37.6836 186.396 38.6379C185.084 39.6518 184.249 41.0236 183.772 42.7532H198.324Z" fill="#191A33"/>
<path d="M154.383 59.2143C152.117 57.6636 150.685 55.4568 150.208 52.7133L150.268 52.594C151.222 52.7133 152.295 52.5344 153.608 52.0573C154.86 51.5801 155.814 50.9241 156.47 50.2084L156.59 50.268C156.828 51.6994 157.484 52.8922 158.677 53.8465C159.81 54.8008 161.182 55.2183 162.852 55.2183C164.105 55.2183 165.118 54.9797 165.834 54.4429C166.55 53.9062 166.908 53.1904 166.908 52.2362C166.908 51.4012 166.55 50.8048 165.953 50.3873C165.357 49.9698 164.462 49.6119 163.27 49.3137L160.407 48.7173C157.365 48.0613 155.099 47.0473 153.667 45.6159C152.236 44.2442 151.52 42.3953 151.52 40.1289C151.52 38.4589 151.938 36.9082 152.892 35.4768C153.846 34.0454 155.158 32.9122 156.828 32.0772C158.498 31.2423 160.466 30.8248 162.614 30.8248C165.596 30.8248 168.101 31.6001 170.069 33.0315C172.037 34.4629 173.349 36.3118 173.945 38.4589L173.886 38.5782C172.872 38.5186 171.739 38.7571 170.486 39.2343C169.234 39.7114 168.28 40.3078 167.683 41.0235L167.564 40.9639C167.266 39.6518 166.669 38.6975 165.715 37.9818C164.761 37.2661 163.687 36.9082 162.375 36.9082C161.301 36.9082 160.407 37.2064 159.751 37.6836C159.035 38.2204 158.737 38.8168 158.737 39.5325C158.737 40.3078 159.035 40.9042 159.691 41.2621C160.347 41.6796 161.301 42.0374 162.614 42.276L165.417 42.8128C167.981 43.4092 170.069 44.3635 171.739 45.7949C173.349 47.2263 174.184 49.1944 174.184 51.759C174.184 53.6676 173.647 55.3376 172.693 56.8286C171.739 58.3196 170.367 59.5125 168.637 60.3475C166.908 61.1825 164.94 61.5999 162.733 61.5999C159.453 61.5999 156.649 60.8246 154.383 59.2143Z" fill="#191A33"/>
<path d="M123.002 59.3931C120.915 58.081 119.304 56.2321 118.171 53.9061C116.978 51.6397 116.441 49.0751 116.441 46.2123C116.441 43.4688 116.978 40.9042 118.171 38.5782C119.304 36.3118 120.915 34.4629 123.062 33.1507C125.149 31.8386 127.535 31.1229 130.219 31.1229C132.127 31.1229 134.036 31.6001 135.885 32.5543C137.674 33.5086 139.046 34.8207 139.94 36.4907V31.779H147.217V54.5025V60.7053H139.94V55.9936C138.986 57.6635 137.614 58.9757 135.825 59.9299C133.976 60.8842 132.127 61.3613 130.219 61.3613C127.475 61.3613 125.089 60.7053 123.002 59.3931ZM126.223 52.0572C127.714 53.6675 129.622 54.4429 131.889 54.4429C134.215 54.4429 136.123 53.6675 137.614 52.1168C139.105 50.5662 139.881 48.598 139.881 46.2123C139.881 43.9459 139.105 42.0374 137.614 40.427C136.123 38.8764 134.215 38.0414 131.889 38.0414C129.563 38.0414 127.654 38.8764 126.163 40.427C124.672 41.9777 123.956 43.9459 123.956 46.2123C123.956 48.5383 124.672 50.5065 126.223 52.0572Z" fill="#191A33"/>
<path d="M83 18.9561H99.1033C101.489 18.9561 103.636 19.4332 105.545 20.3875C107.394 21.3417 108.825 22.6538 109.899 24.2642C110.972 25.8745 111.509 27.6638 111.509 29.5723C111.509 31.6598 110.972 33.449 109.958 34.9997C108.885 36.5504 107.453 37.7432 105.604 38.5186C107.93 39.2343 109.839 40.5464 111.33 42.3356C112.761 44.1249 113.537 46.2124 113.537 48.598C113.537 50.9241 112.94 53.0115 111.807 54.8008C110.674 56.6497 109.123 58.0811 107.095 59.1546C105.068 60.2282 102.801 60.7053 100.237 60.7053H83V18.9561ZM99.2822 53.8465C101.012 53.8465 102.503 53.3694 103.696 52.4151C104.889 51.4608 105.485 50.0294 105.485 48.1805C105.485 46.3913 104.829 44.9599 103.636 43.946C102.443 42.9917 100.952 42.4549 99.163 42.4549H90.7534V53.8465H99.2822ZM98.0298 35.954C99.5805 35.954 100.952 35.5365 102.026 34.6419C103.099 33.7472 103.636 32.4947 103.636 30.8248C103.636 29.2144 103.04 27.962 101.966 27.0673C100.893 26.2324 99.5208 25.7552 97.9701 25.7552H90.7534V35.954H98.0298Z" fill="#191A33"/>
<path d="M0 61C0 47.1929 11.1929 36 25 36H33V69H3C1.34314 69 0 67.6569 0 66V61Z" fill="#191A33"/>
<path d="M0 3C0 1.34315 1.34315 0 3 0H19C26.732 0 33 6.26801 33 14V19H14C6.26801 19 0 12.732 0 5V3Z" fill="#27AE60"/>
<path d="M33 19C46.8071 19 58 30.1929 58 44C58 57.8071 46.8071 69 33 69V19Z" fill="#191A33"/>
<path d="M33 36H25V35.999C29.4102 35.9895 32.9824 32.4124 32.9824 28H33V36Z" fill="#191A33"/>
</svg>
